<svg xmlns="http://www.w3.org/2000/svg" viewBox="0 0 224.7 78">
  <defs>
    <linearGradient id="a" x1="-1.91" x2="2.98" y1="-.84" y2="1.41">
      <stop offset="0" stop-color="#99d633"/>
      <stop offset=".5" stop-color="#3c9"/>
      <stop offset="1" stop-color="#273470"/>
    </linearGradient>
    <linearGradient id="d" x1="-3.57" x2="1.33" y1="-1.6" y2=".65" href="#a"/>
    <linearGradient id="e" x1="-3.05" x2="1.85" y1="-.9" y2="1.35" href="#a"/>
    <linearGradient id="f" x1="-2.89" x2="2.01" y1="-1.29" y2=".96" href="#a"/>
    <linearGradient id="g" x1="-2.4" x2="2.5" y1="-1.07" y2="1.19" href="#a"/>
    <linearGradient id="h" x1="-.99" x2="2.68" y1="-.42" y2="1.27" href="#a"/>
    <linearGradient id="i" x1="-1.51" x2="2.16" y1="-.2" y2="1.5" href="#a"/>
    <linearGradient id="j" x1="-3.4" x2="1.49" y1="-1.07" y2="1.19" href="#a"/>
    <linearGradient id="k" x1=".35" x2="3.29" y1=".2" y2="1.55" href="#a"/>
    <linearGradient id="l" x1="-.91" x2="2.77" y1=".08" y2="1.77" href="#a"/>
    <linearGradient id="m" x1="-2.12" x2="2.78" y1="-.48" y2="1.78" href="#a"/>
    <linearGradient id="n" x1="-5.64" x2=".49" y1="-3" y2=".74" href="#a"/>
    <linearGradient id="o" x1="-3.5" x2="2.64" y1="-1.69" y2="2.05" href="#a"/>
    <linearGradient id="p" x1="-1.42" x2="3.17" y1="-.92" y2="1.88" href="#a"/>
    <linearGradient id="q" x1="-3.31" x2="2.83" y1="-2.07" y2="1.67" href="#a"/>
    <linearGradient id="r" x1="-1.68" x2="2.91" y1="-1.08" y2="1.72" href="#a"/>
    <linearGradient id="s" x1="-1.16" x2="2.52" y1="-.26" y2="1.98" href="#a"/>
    <linearGradient id="b" x1=".26" x2=".62" y1="3.56" y2="-1.47">
      <stop offset="0" stop-color="#6cf"/>
      <stop offset=".5" stop-color="#6258a6"/>
      <stop offset="1" stop-color="#273470"/>
    </linearGradient>
    <linearGradient id="t" x1=".16" x2=".53" y1="4.92" y2="-.1" href="#b"/>
    <linearGradient id="u" x1=".39" x2=".66" y1="1.82" y2="-1.95" href="#b"/>
    <linearGradient id="v" x1=".25" x2=".61" y1="4.18" y2="-.84" href="#b"/>
    <linearGradient id="w" x1=".42" x2=".69" y1="1.9" y2="-1.87" href="#b"/>
    <linearGradient id="x" x1=".48" x2=".7" y1=".96" y2="-2.06" href="#b"/>
    <linearGradient id="y" x1=".38" x2=".65" y1="2.46" y2="-1.31" href="#b"/>
    <linearGradient id="z" x1=".2" x2=".56" y1="4.92" y2="-.1" href="#b"/>
    <linearGradient id="A" x1=".44" x2=".71" y1="1.63" y2="-2.15" href="#b"/>
    <linearGradient id="B" x1=".26" x2=".62" y1="4.05" y2="-.97" href="#b"/>
    <linearGradient id="C" x1=".5" x2=".5" y1="4.9" y2="-.07" href="#b"/>
    <linearGradient id="D" x1=".5" x2=".5" y1="2.44" y2="-1.3" href="#b"/>
    <linearGradient id="E" x1=".5" x2=".5" y1=".93" y2="-2.05" href="#b"/>
    <linearGradient id="F" x1=".5" x2=".5" y1="3.79" y2="-1.19" href="#b"/>
    <linearGradient id="G" x1=".5" x2=".5" y1="1.81" y2="-1.92" href="#b"/>
    <linearGradient id="H" x1=".5" x2=".5" y1="3.05" y2="-1.93" href="#b"/>
    <linearGradient id="I" x1=".5" x2=".5" y1="2.79" y2="-2.18" href="#b"/>
    <linearGradient id="c" x1="5.01" x2="-2.28" y1="-1.38" y2="2.04">
      <stop offset="0" stop-color="#fdbd4d"/>
      <stop offset=".5" stop-color="#f63"/>
      <stop offset="1" stop-color="#273470"/>
    </linearGradient>
    <linearGradient id="J" x1="2.24" x2="-2.13" y1="-.08" y2="1.97" href="#c"/>
    <linearGradient id="K" x1="6.1" x2="-1.19" y1="-1.89" y2="1.53" href="#c"/>
    <linearGradient id="L" x1="3.38" x2="-2.08" y1="-1.09" y2="1.48" href="#c"/>
    <linearGradient id="M" x1="2.78" x2="-2.69" y1="-.81" y2="1.76" href="#c"/>
    <linearGradient id="N" x1="7.07" x2="-.21" y1="-2.35" y2="1.07" href="#c"/>
    <linearGradient id="O" x1="5.08" x2="-2.21" y1="-1.41" y2="2.01" href="#c"/>
    <linearGradient id="P" x1="5.74" x2="-1.55" y1="-2.19" y2="1.23" href="#c"/>
    <linearGradient id="Q" x1="2.08" x2="-1.78" y1="-.05" y2="1.9" href="#c"/>
    <linearGradient id="R" x1=".73" x2="-2.36" y1=".14" y2="1.69" href="#c"/>
    <linearGradient id="S" x1="2.72" x2="-2.43" y1="-.87" y2="1.73" href="#c"/>
    <linearGradient id="T" x1="1.52" x2="-2.35" y1="-.26" y2="1.68" href="#c"/>
    <linearGradient id="U" x1="3.54" x2="-1.61" y1="-1.28" y2="1.31" href="#c"/>
    <linearGradient id="V" x1="2.63" x2="-1.23" y1="-.32" y2="1.62" href="#c"/>
    <linearGradient id="W" x1="2" x2="-1.86" y1="-.01" y2="1.94" href="#c"/>
    <linearGradient id="X" x1="4.13" x2="-1.02" y1="-1.08" y2="1.52" href="#c"/>
    <linearGradient id="Y" x1="3.02" x2="-2.13" y1="-1.02" y2="1.57" href="#c"/>
    <linearGradient id="Z" x1="4.68" x2="-.47" y1="-1.86" y2=".74" href="#c"/>
  </defs>
  <path fill="#3c9" d="M36.04 26.53 24.6 33.14v13.22l11.45 6.61 11.45-6.6V33.14Z"/>
  <path fill="url(#a)" d="M71.46 20.91v7.93l-6.87-3.96Z"/>
  <path fill="url(#d)" d="m64.25 52.97 6.87 3.97V49Z"/>
  <path fill="url(#e)" d="m68.1 46.36-6.87 3.97v-7.94Z"/>
  <path fill="url(#f)" d="M72.4 35.37v7.93l-6.88-3.96Z"/>
  <path fill="url(#g)" d="M56.65 56.85v7.93l-6.87-3.97Z"/>
  <path fill="url(#h)" d="m57.8 51.64-9.17-5.28 9.16-5.3Z"/>
  <path fill="url(#i)" d="m57.8 52.97-9.16 5.29V47.68Z"/>
  <path fill="url(#j)" d="m58.5 70.32-6.87 3.97v-7.94Z"/>
  <path fill="url(#k)" d="m47.49 46.36-11.45-6.61 11.45-6.61Z"/>
  <path fill="url(#l)" d="m57.8 39.75-9.17 5.29V34.46Z"/>
  <path fill="url(#l)" d="m46.34 61.08-9.15 5.28V55.8Z"/>
  <path fill="url(#m)" d="M45.2 74.04 38.33 78v-7.93Z"/>
  <path fill="url(#n)" d="m70.02 61.78-6.87 3.96v-7.93Z"/>
  <path fill="url(#o)" d="m68.1 33.14-6.87 3.97v-7.93Z"/>
  <path fill="url(#p)" d="M57.8 27.85v10.58l-9.17-5.3Z"/>
  <path fill="url(#q)" d="M45.2 62.9v7.92l-6.87-3.96Z"/>
  <path fill="url(#r)" d="m46.34 59.76-9.15-5.29 9.15-5.29Z"/>
  <path fill="url(#s)" d="m36.04 39.75 11.45 6.61-11.45 6.61Z"/>
  <path fill="url(#b)" d="M69.33 17.03 62.47 21v-7.93Z"/>
  <path fill="url(#t)" d="m58.08 5.46-6.87 3.97V1.5Z"/>
  <path fill="url(#u)" d="m57.8 26.53-9.17 5.28V21.24Z"/>
  <path fill="url(#v)" d="m45.2 14.55-6.87-3.97 6.87-3.97Z"/>
  <path fill="url(#w)" d="M46.34 19.74v10.58l-9.15-5.29Z"/>
  <path fill="url(#x)" d="M36.04 26.53v13.22l-11.45-6.6Z"/>
  <path fill="url(#y)" d="m34.9 23.7-9.16-5.28 9.16-5.29Z"/>
  <path fill="url(#z)" d="m33.75 7.93-6.87-3.96L33.75 0Z"/>
  <path fill="url(#A)" d="m23.45 31.82-9.16-5.3 9.16-5.28Z"/>
  <path fill="url(#B)" d="M19.76 6.04v7.93l-6.87-3.96Z"/>
  <path fill="url(#C)" d="m45.2 3.97-6.87 3.96V0Z"/>
  <path fill="url(#D)" d="M46.34 18.42 37.2 23.7V13.14Z"/>
  <path fill="url(#E)" d="m47.49 33.14-11.45 6.61V26.53Z"/>
  <path fill="url(#F)" d="m33.75 12.81-6.87 3.97V8.85Z"/>
  <path fill="url(#G)" d="m34.9 25.03-9.16 5.29V19.74Z"/>
  <path fill="url(#H)" d="m56.65 22.65-6.87-3.97 6.87-3.96Z"/>
  <path fill="url(#H)" d="m22.3 18.68-6.87 3.97v-7.93Z"/>
  <path fill="url(#I)" d="M7.56 24.64.69 20.67l6.87-3.97Z"/>
  <path fill="url(#c)" d="m33.75 78-6.87-3.96 6.87-3.97Z"/>
  <path fill="url(#J)" d="M36.04 39.75v13.22L24.6 46.36Z"/>
  <path fill="url(#K)" d="M22.3 66.76v7.94l-6.87-3.97Z"/>
  <path fill="url(#L)" d="m23.45 46.36-9.16 5.29V41.07Z"/>
  <path fill="url(#M)" d="m23.45 33.14-9.16 5.3v-10.6Z"/>
  <path fill="url(#N)" d="M9.62 59.4v7.93l-6.87-3.96Z"/>
  <path fill="url(#O)" d="M10.85 28.9v7.93l-6.87-3.96Z"/>
  <path fill="url(#P)" d="M6.87 40.1 0 44.05v-7.93Z"/>
  <path fill="url(#Q)" d="m34.9 66.37-9.17-5.29 9.16-5.29Z"/>
  <path fill="url(#R)" d="m36.04 39.75-11.45 6.6v-13.2Z"/>
  <path fill="url(#S)" d="m33.75 67.43-6.87 3.96v-7.93Z"/>
  <path fill="url(#T)" d="m34.9 54.47-9.16 5.29V49.18Z"/>
  <path fill="url(#U)" d="m22.3 60.81-6.87 3.97v-7.93Z"/>
  <path fill="url(#V)" d="M23.45 47.68v10.58l-9.16-5.29Z"/>
  <path fill="url(#W)" d="M23.45 34.46v10.57l-9.16-5.28Z"/>
  <path fill="url(#X)" d="m10.85 50.33-6.87-3.97 6.87-3.97Z"/>
  <path fill="url(#Y)" d="M7.15 26.53.27 30.5v-7.94Z"/>
  <path fill="url(#Z)" d="M7.56 53.45.69 57.42v-7.94Z"/>
  <path fill="currentColor" d="M203.76 35.83h-1v7.73h-3.67v-.05a3 3 0 00.6-.73 2 2 0 00.26-1.12 2 2 0 00-.1-.63 2 2 0 00-.32-.64 2 2 0 00-.6-.49 2 2 0 00-.9-.2 2 2 0 00-1.67.82 4 4 0 00-.6 2.33v.7h-1.3a1 1 0 01-.53-.1 1 1 0 01-.33-.26 1 1 0 01-.17-.42 3 3 0 01-.04-.56v-2.35h-1v2.8a1 1 0 01-.07.48.5.5 0 01-.2.27 1 1 0 01-.36.12l-.5.02h-.82a1 1 0 01-.53-.1 1 1 0 01-.33-.27 1 1 0 01-.16-.42 3 3 0 01-.04-.55v-2.35h-1v2.8a1 1 0 01-.07.48.5.5 0 01-.2.27 1 1 0 01-.36.12l-.5.02-2.92-.01q-.55 0-.72-.21a1.3 1.3 0 01-.15-.73v-3.5h-1.95a3 3 0 00-.89.12 2 2 0 00-.81.4 2 2 0 00-.6.73 2.4 2.4 0 00-.24 1.1 2 2 0 00.25 1.06 2 2 0 00.6.64 2 2 0 00.73.3 3 3 0 00.68.1 4 4 0 001.26-.23 1.4 1.4 0 00.2.6 1 1 0 00.4.38 2 2 0 00.5.2 3 3 0 00.61.06h3.24a4 4 0 001.15-.15 1.1 1.1 0 00.7-.65 1 1 0 00.39.57 1.2 1.2 0 00.77.23h1a4 4 0 001.15-.15 1.1 1.1 0 00.7-.65 1 1 0 00.39.57 1.2 1.2 0 00.77.23h1.31v.13a6 6 0 00.11 1.2 2.4 2.4 0 00.37.9 2 2 0 00.7.58 3 3 0 001.06.2 2 2 0 00.84-.15 2 2 0 00.6-.4 2 2 0 00.36-.57 2 2 0 00.12-.68 2 2 0 00-.08-.56 1.3 1.3 0 00-.38-.6v-.06h4.3Zm-21.32 6.47a3 3 0 01-.56.16 3 3 0 01-.58.06 1.4 1.4 0 01-1.03-.32 1.1 1.1 0 01-.33-.83 1.1 1.1 0 01.42-.94 1.7 1.7 0 011-.3h1.08Zm14.33.45a3 3 0 01.32-1.52 1 1 0 01.93-.53 1 1 0 01.68.27 1.1 1.1 0 01.3.86 2 2 0 01-.09.55 2 2 0 01-.28.56 2 2 0 01-.52.44 1.6 1.6 0 01-.79.18h-.55Zm1.99 3.63a1 1 0 01-.77.25 1 1 0 01-.63-.14 1 1 0 01-.37-.38 2 2 0 01-.18-.58 6 6 0 01-.04-.72v-.23h.9a2 2 0 01.72.12 1 1 0 01.4.3 1 1 0 01.18.37l.03.3a1 1 0 01-.24.7m6.71-10.54h1v8.75h-1zM94.07 59.37h6.23v-1.02h-1.79a1.6 1.6 0 01-1.18-.4 1.4 1.4 0 01-.4-1.02 1.3 1.3 0 01.46-1.04 2 2 0 011.22-.38 3 3 0 01.66.05l.5.13V54.6a2 2 0 00-.45-.1 5 5 0 00-.75-.06 3 3 0 00-.95.15 3 3 0 00-.85.45 2 2 0 00-.63.77 2.4 2.4 0 00-.24 1.1 2 2 0 00.15.84 2 2 0 00.37.6h-2.73a9 9 0 01-2.95-.58v1l.84.23q.48.14.9.3a3 3 0 01.71.39.6.6 0 01.29.5.6.6 0 01-.25.45 2 2 0 01-.66.32 6 6 0 01-.99.2 10 10 0 01-1.18.07 4.5 4.5 0 01-2.43-.51 1.8 1.8 0 01-.75-1.6v-1.7h-1v1.9a4 4 0 00.19 1.15 2 2 0 00.65.92 3.4 3.4 0 001.28.62 8 8 0 002.03.23 9 9 0 001.88-.17 4 4 0 001.25-.44 2 2 0 00.69-.63 1.4 1.4 0 00.21-.72 2 2 0 00-.1-.5 1 1 0 00-.23-.41m33.2-4.88a4 4 0 00-1.56.35 5 5 0 00-1.3.9 6 6 0 00-.97 1.25 7 7 0 00-.64 1.36 1 1 0 01-.47-.1 1 1 0 01-.26-.27 1 1 0 01-.12-.42l-.02-.56v-1.74h-1v2.2a1 1 0 01-.08.48.5.5 0 01-.24.27 1 1 0 01-.44.11q-.29.03-.69.03h-1.36V57.3a3 3 0 00-.67-2.07 2.4 2.4 0 00-1.85-.74 3.5 3.5 0 00-1.95.56 5 5 0 00-1.47 1.57v-6h-1v7.73h-1.39a1 1 0 01-.52-.1 1 1 0 01-.33-.27 1 1 0 01-.17-.42 3 3 0 01-.04-.56v-2.35h-1v2.8a1 1 0 01-.07.48.5.5 0 01-.2.27 1 1 0 01-.36.12l-.5.02h-2.83q-.55 0-.7-.21a1.3 1.3 0 01-.16-.73v-6.78h-1v7.05a2 2 0 00.12.81 1.2 1.2 0 00.91.8 3 3 0 00.72.08h3.13a4 4 0 001.16-.14 1.1 1.1 0 00.7-.65 1 1 0 00.38.57 1.2 1.2 0 00.77.22h9.66q.54 0 .94-.03a3 3 0 00.68-.11 1 1 0 00.47-.24 1 1 0 00.3-.41q.06.15.16.3a1 1 0 00.24.25 1 1 0 00.4.18 2 2 0 00.63.06h6.6V57.3a3 3 0 00-.67-2.08 2.5 2.5 0 00-1.93-.73m-10.16 3.86h-4.94a6 6 0 01.49-.98 5 5 0 01.7-.91 4 4 0 01.9-.68 2.3 2.3 0 011.1-.27 2 2 0 01.82.16 1.5 1.5 0 01.54.43 2 2 0 01.3.64 4 4 0 01.08.8Zm11.75 0h-5a6 6 0 01.49-1.01 4 4 0 01.73-.91 4 4 0 01.93-.66 2.4 2.4 0 011.1-.26 2 2 0 01.81.15 1.4 1.4 0 01.55.41 2 2 0 01.3.65 3 3 0 01.09.81Zm4.97-5.94v5.94h-2.75v1.01h6.95v-8.74h-1v7.73h-2.19V52.4Zm5.92-1.79h1v8.75h-1zm7.22 7.54a1.2 1.2 0 01-.28-.79 1 1 0 01.06-.36 1 1 0 01.18-.32 1 1 0 01.32-.22 1 1 0 01.47-.09 2 2 0 01.87.16v-.96l-.36-.06-.6-.03a2 2 0 00-.67.11 2 2 0 00-.58.35 2 2 0 00-.4.57 2 2 0 00-.15.82 1.7 1.7 0 00.4 1.15h-.9v.88h3.69v-.88h-1.15a1.1 1.1 0 01-.9-.33m7.95-4.52-.15.22-.13.28a1 1 0 00-.08.3 12 12 0 011.32.74 11 11 0 011.14.84 5 5 0 01.8.83 1.3 1.3 0 01.3.73.6.6 0 01-.3.6 2 2 0 01-.76.17h-4.93q-.55 0-.71-.22a1.3 1.3 0 01-.16-.72v-6.79h-1v7.06a2 2 0 00.13.8 1.3 1.3 0 00.35.53 1.3 1.3 0 00.55.27 3 3 0 00.72.08h5.03a3 3 0 001.04-.17 2 2 0 00.63-.43 1.4 1.4 0 00.3-.56 2 2 0 00.08-.56 2 2 0 00-.17-.78 3 3 0 00-.54-.85 7 7 0 00-.98-.92 13 13 0 00-1.46-.98l3.6-1.59v-1l-4.48 1.98zm8.45 4.58a2 2 0 01-.79.13h-2.19v1.02h1.86q.3 0 .59-.03a2 2 0 00.56-.11 1.4 1.4 0 00.47-.3 1.4 1.4 0 00.35-.52 2 2 0 00.69.75 1.6 1.6 0 00.84.2h2.92v-8.74h-1v7.73h-1.92a1 1 0 01-.32-.1 1 1 0 01-.32-.27 4 4 0 01-.35-.47l-.43-.7-1.47-2.44-.94.59 1.3 1.92.3.5a1 1 0 01.13.47.4.4 0 01-.28.37m7.01-7.6h1v8.75h-1zm6.82 9.8a4 4 0 00.25-1.5v-1.14a7 7 0 00-.12-1.28 3 3 0 00-.38-1 2 2 0 00-.72-.66 2.3 2.3 0 00-1.1-.24 2.4 2.4 0 00-1.04.22 2 2 0 00-.76.58 3 3 0 00-.47.84 3 3 0 00-.16.97 3 3 0 00.18 1.02 2 2 0 00.48.67 2 2 0 00.7.36 3 3 0 00.9.11 3 3 0 00.88-.1 3 3 0 00.57-.25v.23a2 2 0 01-.2.9 1.3 1.3 0 01-.54.5 2 2 0 01-.83.21q-.49.05-1.08.05h-.37v1.02h.5a8 8 0 001.5-.12 3 3 0 001.1-.46 2 2 0 00.71-.92m-.78-2.43a2 2 0 01-.54.27 3 3 0 01-.82.12 1.6 1.6 0 01-1-.3 1.2 1.2 0 01-.37-1 2 2 0 01.08-.53 2 2 0 01.24-.49 1 1 0 01.43-.36 1.3 1.3 0 01.65-.15 1.2 1.2 0 011.04.57 2 2 0 01.22.63 4 4 0 01.07.78Zm17.74-12.21h-1.05v1.27l1.05-.6Zm-1.6 0h-1.04v1.27l1.04-.6Zm-9.6-9.2h-1.04v1.28l1.04-.6Zm-1.59 0h-1.04v1.28l1.04-.6Zm-47.97 0h-1.04v1.28l1.04-.6Zm-1.6 0h-1.04v1.28l1.05-.6Zm8.3 9.19h-1.05v1.27l1.04-.6Zm-1.6 0h-1.04v1.27l1.04-.6Zm-24.6 0h-1.04v1.27l1.04-.6Zm-1.59 0h-1.04v1.27l1.04-.6Zm4.63 0h-1.04v1.27l1.04-.6Zm46.02 6.17h-1.04v1.27l1.04-.6Zm-54.19 0h-1.04v1.27l1.04-.6ZM92.56 37.88h-1.04v1.27l1.04-.6Zm-1.6 0h-1.03v1.27l1.04-.6Zm.58 25.14H90.5v1.28l1.04-.6Zm-1.59 0h-1.04v1.28l1.04-.6Zm14.63-25.86h-1.04v1.27l1.04-.6ZM126.42.96h-11.4v27.59h11.4c9.48 0 15.8-5.51 15.8-13.8S135.9.97 126.42.97m0 21.35h-3.31V7.2h3.3c4.44 0 7.45 2.97 7.45 7.55s-3.01 7.55-7.44 7.55M163.67.95H151.5l-8.63 27.59h8.74l1.57-5.4 7.68-4.43h-6.51l3.24-10.7 3.27 10.7 2.7 9.83h8.75Zm43.9 0h-12.16l-8.64 27.59h8.75l1.57-5.4 7.67-4.43h-6.5l3.23-10.7 3.27 10.7 2.7 9.83h8.75ZM175.36 5.8v22.76h8.36V.96Zm-75.7 5.34c-3.05-.34-5.36-.65-5.36-2.62 0-1.46 1.62-2.54 3.97-2.54 2.73 0 4.77 1.54 4.73 3.66l6.22-3.6C107.54 2.4 103.35 0 98 0c-6.9 0-11.8 3.78-11.8 9.44 0 6.51 5.32 7.94 11.02 8.6 2.93.38 5.36.69 5.36 2.7 0 1.65-1.62 2.8-4.05 2.8-3 0-5.2-1.72-5.23-4.07h-7.25a9 9 0 00.78 3.74c1.7 3.8 5.98 6.3 11.43 6.3 7.28 0 12.4-4 12.4-9.86 0-6.51-5.5-7.94-11-8.51m-6.82 58.83a3 3 0 00-.89-.45q-.5-.16-1.03-.28T89.88 69a5 5 0 01-.9-.27 2 2 0 01-.63-.4 1 1 0 01-.24-.66 1.4 1.4 0 01.16-.72 1.3 1.3 0 01.44-.46 2 2 0 01.63-.24 4 4 0 01.73-.08 2.5 2.5 0 011.48.43 1.8 1.8 0 01.68 1.36h1.1a3 3 0 00-.28-1.24 2.5 2.5 0 00-.68-.87 3 3 0 00-1-.5 5 5 0 00-1.25-.16 5 5 0 00-1.17.16 3 3 0 00-1.02.46 2.4 2.4 0 00-.71.8 2.3 2.3 0 00-.27 1.15 2 2 0 00.24.99 2 2 0 00.63.65 4 4 0 00.9.4q.5.16 1.03.27t1.03.23a5 5 0 01.9.3 2 2 0 01.62.45 1 1 0 01.24.74 1.3 1.3 0 01-.7 1.26 2 2 0 01-.72.25 4 4 0 01-.8.08 4 4 0 01-.95-.12 2 2 0 01-.81-.38 1.9 1.9 0 01-.78-1.6h-1.1a3 3 0 00.29 1.37 3 3 0 00.78.97 3 3 0 001.15.56 5 5 0 002.6.03 4 4 0 001.1-.45 3 3 0 00.8-.81 2.5 2.5 0 00.08-2.27 2 2 0 00-.65-.72m7.11 3.25a2 2 0 01-.04-.54v-3.26a2 2 0 00-.2-.9 1.5 1.5 0 00-.56-.53 2 2 0 00-.77-.25 6 6 0 00-.85-.06 5 5 0 00-1 .11 3 3 0 00-.84.36 2 2 0 00-.59.66 2 2 0 00-.24.99h1.04a1.1 1.1 0 01.47-.95 2 2 0 011.1-.25l.5.03a1 1 0 01.46.15 1 1 0 01.33.32 1 1 0 01.13.55.6.6 0 01-.18.45 1 1 0 01-.46.23 5 5 0 01-.68.12q-.39.05-.82.13a7 7 0 00-.79.2 2 2 0 00-.68.32 2 2 0 00-.49.55 2 2 0 00-.18.88 2 2 0 00.17.81 1.5 1.5 0 00.44.55 2 2 0 00.67.32 3 3 0 00.81.1 3 3 0 001.23-.24 2.6 2.6 0 001-.74 1 1 0 00.24.74 1 1 0 00.65.24 1.4 1.4 0 00.74-.18v-.8a1 1 0 01-.32.06q-.25 0-.29-.18m-1.08-1.26a1 1 0 01-.11.47 1.4 1.4 0 01-.35.47 2 2 0 01-.6.35 3 3 0 01-.88.15 2 2 0 01-.46-.05 1 1 0 01-.39-.16 1 1 0 01-.27-.3 1 1 0 01-.1-.43 1 1 0 01.1-.49 1 1 0 01.28-.32 1 1 0 01.4-.2l.49-.12q.25-.05.53-.08a7 7 0 00.99-.18 1 1 0 00.36-.17Zm6.85-.55a3 3 0 01-.11.8 2 2 0 01-.35.63 2 2 0 01-.58.41 2 2 0 01-.83.15 1.3 1.3 0 01-.94-.34 1.3 1.3 0 01-.34-.93v-4.29h-1.05v4.16a4 4 0 00.1.94 2 2 0 00.37.73 2 2 0 00.67.47 3 3 0 001.04.18 2.5 2.5 0 001.2-.29 2 2 0 00.86-.86h.02v1h.98v-6.33h-1.04Zm7.23-2.73h-.02a2 2 0 00-.42-.47 3 3 0 00-.54-.3 3 3 0 00-.56-.17 3 3 0 00-.53-.05 3 3 0 00-1.26.26 3 3 0 00-.91.72 3 3 0 00-.54 1.04 4 4 0 00-.18 1.27 4 4 0 00.19 1.27 3 3 0 00.54 1.06 3 3 0 00.91.73 3 3 0 001.28.27 3 3 0 001.21-.24 1.6 1.6 0 00.81-.76h.02v.85h1.04V65.4h-1.04Zm-.07 3.2a2 2 0 01-.33.77 1.7 1.7 0 01-1.5.75 2 2 0 01-.87-.2 2 2 0 01-.61-.53 2 2 0 01-.36-.75 3 3 0 01-.11-.86 4 4 0 01.1-.9 2 2 0 01.32-.8 2 2 0 01.58-.54 2 2 0 01.9-.21 2 2 0 01.91.2 2 2 0 01.62.53 2 2 0 01.35.76 4 4 0 010 1.77Zm2.78-4.04h1.04v6.33h-1.04zm9.23-2.42h-3v8.75h3a5 5 0 001.88-.3 3.3 3.3 0 001.31-.9 4 4 0 00.76-1.43 7 7 0 00.25-1.95 4 4 0 00-1.1-3.14 4.4 4.4 0 00-3.1-1.03m2.87 5.7a3 3 0 01-.42.95 2 2 0 01-.59.6 3 3 0 01-.65.34 3 3 0 01-.63.15q-.29.03-.49.03h-1.93v-6.79H125a4 4 0 011.35.23 2.3 2.3 0 01.9.67 3 3 0 01.5 1.04 6 6 0 01.16 1.4 5 5 0 01-.16 1.38m7.58 2.1a2 2 0 01-.04-.53v-3.26a2 2 0 00-.21-.9 1.5 1.5 0 00-.55-.53 2 2 0 00-.77-.25 6 6 0 00-.85-.06 5 5 0 00-1 .11 3 3 0 00-.84.36 2 2 0 00-.6.66 2 2 0 00-.24.99h1.04a1.1 1.1 0 01.48-.95 2 2 0 011.1-.25l.5.03a1 1 0 01.46.15 1 1 0 01.33.32 1 1 0 01.13.55.6.6 0 01-.18.45 1 1 0 01-.46.23 5 5 0 01-.68.12q-.39.04-.82.13a7 7 0 00-.79.2 2 2 0 00-.68.32 2 2 0 00-.49.55 2 2 0 00-.18.88 2 2 0 00.17.81 1.5 1.5 0 00.44.55 2 2 0 00.67.32 3 3 0 00.81.1 3 3 0 001.23-.24 2.6 2.6 0 001-.74 1 1 0 00.24.74 1 1 0 00.65.24 1.4 1.4 0 00.74-.18v-.8a1 1 0 01-.32.06q-.25 0-.3-.18m-1.07-1.26a1 1 0 01-.11.47 1.4 1.4 0 01-.35.47 2 2 0 01-.6.35 3 3 0 01-.88.15 2 2 0 01-.46-.05 1 1 0 01-.39-.16 1 1 0 01-.27-.3 1 1 0 01-.1-.43 1 1 0 01.1-.49 1 1 0 01.28-.32 1 1 0 01.4-.2l.49-.12q.25-.05.53-.08a7 7 0 00.98-.18 1 1 0 00.37-.17Zm4.1-6.02h-1.04v1.9h-1.08v.92h1.07v4.02a2 2 0 00.09.71 1 1 0 00.26.42 1 1 0 00.47.2 4 4 0 00.69.06h.8v-.92h-.48l-.4-.02-.24-.08a.3.3 0 01-.12-.17 1 1 0 01-.03-.3v-3.93h1.26v-.91h-1.26Zm7.41 7.28a2 2 0 01-.04-.53v-3.26a2 2 0 00-.21-.9 1.5 1.5 0 00-.55-.53 2 2 0 00-.77-.25 6 6 0 00-.85-.06 5 5 0 00-1 .11 3 3 0 00-.84.36 2 2 0 00-.59.66 2 2 0 00-.24.99h1.04a1.1 1.1 0 01.47-.95 2 2 0 011.1-.25l.5.03a1 1 0 01.46.15 1 1 0 01.33.32 1 1 0 01.13.55.6.6 0 01-.17.45 1 1 0 01-.47.23 5 5 0 01-.68.12q-.39.04-.81.13a7 7 0 00-.8.2 2 2 0 00-.68.32 2 2 0 00-.48.55 2 2 0 00-.19.88 2 2 0 00.17.81 1.5 1.5 0 00.44.55 2 2 0 00.67.32 3 3 0 00.82.1 3 3 0 001.23-.24 2.6 2.6 0 001-.74 1 1 0 00.24.74 1 1 0 00.64.24 1.4 1.4 0 00.75-.18v-.8a1 1 0 01-.32.06q-.26 0-.3-.18m-1.08-1.26a1 1 0 01-.11.47 1.4 1.4 0 01-.35.47 2 2 0 01-.6.35 3 3 0 01-.88.15 2 2 0 01-.46-.05 1 1 0 01-.39-.16 1 1 0 01-.27-.3 1 1 0 01-.1-.43 1 1 0 01.1-.49 1 1 0 01.28-.32 1 1 0 01.4-.2l.49-.12q.25-.05.53-.08a7 7 0 00.99-.18 1 1 0 00.36-.17Zm11.7-.29.17-.46.11-.5.08-.67h-1a5 5 0 01-.27 1.36l-1.58-1.92a5 5 0 00.6-.41 3 3 0 00.54-.51 2 2 0 00.36-.62 2 2 0 00.14-.73 2 2 0 00-.18-.78 2 2 0 00-.47-.56 2 2 0 00-.68-.34 3 3 0 00-.8-.1 2 2 0 00-.84.14 2 2 0 00-.61.4 2 2 0 00-.38.58 2 2 0 00-.13.68 2 2 0 00.08.6 2 2 0 00.22.5l.3.46c.18.23.24.32.36.5a9 9 0 00-.79.46 3 3 0 00-.64.56 3 3 0 00-.45.7 2 2 0 00-.16.91 3 3 0 00.09.67 2 2 0 00.39.79 2.4 2.4 0 00.83.65 3 3 0 001.42.28 3 3 0 00.72-.08 3 3 0 00.68-.23 3 3 0 00.6-.39 2 2 0 00.47-.54l.93 1.1h1.36l-1.7-1.98zm-3.6-5.11a1.2 1.2 0 01.69-.23 1 1 0 01.73.28 1 1 0 01.28.65 1 1 0 01-.11.51 2 2 0 01-.29.41 2 2 0 01-.38.33l-.4.27-.3-.36-.26-.38a2 2 0 01-.2-.38 1 1 0 01-.08-.4.8.8 0 01.32-.7m1.4 6.54a2 2 0 01-1.06.29 2 2 0 01-.62-.11 2 2 0 01-.53-.3 1.4 1.4 0 01-.38-.47 1.3 1.3 0 01-.14-.6 2 2 0 01.12-.68 2 2 0 01.33-.52 3 3 0 01.49-.42q.27-.19.58-.36l2 2.42a2.4 2.4 0 01-.78.75Zm10.21-7.69L161 74.16h1.2l.98-2.64h3.7l.95 2.64h1.29l-3.42-8.75Zm-.87 5.13 1.49-4.07h.02l1.46 4.07Zm6.48-5.13h1.17v8.75H170zm8.9 0-3.41 8.75h1.2l.98-2.64h3.7l.95 2.64h1.28l-3.41-8.75Zm-.87 5.13 1.48-4.07h.03l1.46 4.08Zm10.46.87a3 3 0 01-.11.79 2 2 0 01-.35.63 2 2 0 01-.58.41 2 2 0 01-.83.15 1.3 1.3 0 01-.94-.34 1.3 1.3 0 01-.35-.93v-4.29h-1.04v4.16a4 4 0 00.1.94 2 2 0 00.36.73 2 2 0 00.68.47 3 3 0 001.04.18 2.5 2.5 0 001.2-.29 2 2 0 00.86-.86h.02v1h.98v-6.33h-1.04Zm4.06-5.48h-1.05v1.9h-1.07v.92h1.07v4.03a2 2 0 00.09.7 1 1 0 00.26.42 1 1 0 00.47.2 4 4 0 00.69.06h.8v-.92h-.48l-.4-.02-.24-.08a.3.3 0 01-.12-.17 1 1 0 01-.03-.3v-3.92h1.26v-.92h-1.25Zm7.18 2.4a2 2 0 00-.67-.48 3 3 0 00-1.04-.17 3 3 0 00-.58.06 2 2 0 00-.57.2 2 2 0 00-.5.33 2 2 0 00-.35.49H196V65.4h-1.04v8.75H196v-3.58a3 3 0 01.12-.79 2 2 0 01.35-.63 2 2 0 01.58-.41 2 2 0 01.83-.15 1.3 1.3 0 01.94.34 1.3 1.3 0 01.34.93v4.29h1.04V70a4 4 0 00-.1-.94 2 2 0 00-.36-.73m7.06.31a3 3 0 00-.97-.7 3.5 3.5 0 00-2.65 0 3 3 0 00-.96.7 3 3 0 00-.59 1.05 4 4 0 00-.2 1.3 4 4 0 00.2 1.3 3 3 0 00.59 1.05 3 3 0 00.96.7 3.5 3.5 0 002.65 0 3 3 0 00.97-.7 3 3 0 00.58-1.05 4 4 0 00.2-1.3 4 4 0 00-.2-1.3 3 3 0 00-.58-1.05m-.47 3.38a2 2 0 01-.43.75 2 2 0 01-.63.46 2 2 0 01-1.53 0 2 2 0 01-.63-.46 2 2 0 01-.42-.75 3.5 3.5 0 010-2.04 2 2 0 01.42-.76 2 2 0 01.63-.46 2 2 0 011.53 0 2 2 0 01.63.46 2 2 0 01.43.76 3.5 3.5 0 010 2.04m3.44-2.86h-.02v-1.33h-.98v6.33h1.04v-2.82a4 4 0 01.12-1.08 2 2 0 01.4-.8 2 2 0 01.7-.5 3 3 0 011.07-.18v-1.1a2.3 2.3 0 00-1.4.35 3 3 0 00-.93 1.13m3.17-1.33h1.04v6.33h-1.04zm4.1-1.9H216v1.9h-1.07v.92H216v4.03a2 2 0 00.09.7 1 1 0 00.26.42 1 1 0 00.47.2 4 4 0 00.69.06h.8v-.92h-.48l-.4-.02-.24-.08a.3.3 0 01-.12-.17 1 1 0 01-.03-.3v-3.92h1.26v-.92h-1.26Zm6.56 1.9L221.82 73h-.03l-1.84-5.18h-1.18l2.51 6.3-.43 1.07a1 1 0 01-.34.43 1 1 0 01-.51.14 1 1 0 01-.32-.04l-.3-.1v.95l.36.09.37.02a2 2 0 00.6-.1 1 1 0 00.48-.28 2 2 0 00.39-.52 7 7 0 00.36-.79l2.76-7.17ZM116.69 65.4h-1.04v1.28l1.04-.6Zm97.3 0h-1.05v1.28l1.04-.6ZM86.74 44.17a2 2 0 00.76.3 6 6 0 001.19.1h7.42v-4.7h-1v3.7H89.2q-.59 0-.97-.04a2 2 0 01-.6-.15.7.7 0 01-.3-.35 2 2 0 01-.1-.6v-1.54h-1v1.9a2 2 0 00.12.83 1.2 1.2 0 00.4.55m11.56.05a1.3 1.3 0 00.56.27 3 3 0 00.71.08h5.02v-4.71h-1v3.7h-3.9q-.54 0-.7-.21a1.3 1.3 0 01-.16-.73v-6.79h-1v7.06a2 2 0 00.13.8 1.3 1.3 0 00.34.53m8.48 0a1.3 1.3 0 00.55.27 3 3 0 00.72.08h3.13a4 4 0 001.16-.14 1.1 1.1 0 00.69-.65 1 1 0 00.39.57 1.2 1.2 0 00.77.22h1a4 4 0 001.16-.14 1.1 1.1 0 00.7-.65 1 1 0 00.38.57 1.2 1.2 0 00.78.22h.87a4 4 0 001.24-.14 1.1 1.1 0 00.7-.65 1 1 0 00.38.57 1.2 1.2 0 00.77.22h2.92v-8.74h-1v7.73h-1.9a.9.9 0 01-.8-.36 1.7 1.7 0 01-.26-.99v-6.38h-1v6.83a1 1 0 01-.06.49 1 1 0 01-.19.27 1 1 0 01-.28.11l-.4.03h-.98a1 1 0 01-.52-.1 1 1 0 01-.33-.27 1 1 0 01-.17-.42 3 3 0 01-.04-.56v-2.35h-1v2.8a1 1 0 01-.07.48.5.5 0 01-.2.27 1 1 0 01-.36.12l-.5.02h-.82a1 1 0 01-.52-.1 1 1 0 01-.33-.27 1 1 0 01-.17-.42 3 3 0 01-.04-.55v-2.35h-1v2.8a1 1 0 01-.07.48.5.5 0 01-.2.27 1 1 0 01-.35.12l-.5.02h-2.83q-.55 0-.71-.21a1.3 1.3 0 01-.16-.73v-6.79h-1v7.06a2 2 0 00.13.8 1.3 1.3 0 00.32.54m23.45-1.05a2 2 0 00.73.3 3 3 0 00.68.09 4 4 0 001.26-.22 1.4 1.4 0 00.21.6 1 1 0 00.39.38 2 2 0 00.51.2 3 3 0 00.6.05h5.15v-4.71h-1v3.7l-4.02-.01q-.55 0-.7-.22a1.3 1.3 0 01-.17-.72v-3.5h-1.95a3 3 0 00-.89.12 2 2 0 00-.81.4 2 2 0 00-.6.73 2.4 2.4 0 00-.24 1.1 2 2 0 00.25 1.06 2 2 0 00.6.65m.55-2.74a1.7 1.7 0 011-.3h1.08v2.17a3 3 0 01-.56.16 3 3 0 01-.58.06 1.4 1.4 0 01-1.03-.32 1.1 1.1 0 01-.33-.83 1.1 1.1 0 01.42-.94m14.3 3.77a1.3 1.3 0 00.4-.97 2 2 0 00-.11-.56 6 6 0 00-.35-.69q-.23-.4-.6-.98t-.84-1.42l-.95.59.99 1.46.55.83a3 3 0 01.24.43l.05.25a.4.4 0 01-.11.3q-.11.12-.53.12H141v1.02h2.93a1.7 1.7 0 001.18-.38m25.84-.64H169a1 1 0 01-.52-.1 1 1 0 01-.33-.27 1 1 0 01-.16-.42 3 3 0 01-.05-.56v-2.35h-1v2.8a1 1 0 01-.06.49 1 1 0 01-.2.27 1 1 0 01-.29.11l-.38.03a2 2 0 01-.6-.1 1 1 0 01-.35-.27 1 1 0 01-.17-.42 3 3 0 01-.04-.56v-1.74h-1v2.2a1 1 0 01-.07.48 1 1 0 01-.2.27 1 1 0 01-.33.11l-.47.03a2 2 0 01-.68-.1 1 1 0 01-.38-.27 1 1 0 01-.17-.42l-.04-.56v-1.74h-1v2.2a1 1 0 01-.07.48.5.5 0 01-.24.27 1 1 0 01-.45.11q-.28.03-.69.03h-2.13a3 3 0 01-.61-.05 4 4 0 001.03-1.04 2.3 2.3 0 00.39-1.26 1.3 1.3 0 00-.13-.56 1.4 1.4 0 00-.4-.5 2 2 0 00-.65-.33 3 3 0 00-.94-.13 3 3 0 00-1.2.23 3 3 0 00-.96.62l-.14.2a4 4 0 00-.35.82l1.54 1.74a5 5 0 01-.87.2 7 7 0 01-.92.06h-1.42v-.58a6 6 0 00-.13-1.3 3 3 0 00-.4-1 2 2 0 00-.71-.65 2.3 2.3 0 00-1.08-.23 2 2 0 00-1.02.23 2.4 2.4 0 00-.76.6 3 3 0 00-.48.84 3 3 0 00-.16.98 3 3 0 00.17 1 2 2 0 00.5.65 2 2 0 00.73.37 4 4 0 00.92.1h1.39a1.5 1.5 0 01-.22.8 1.3 1.3 0 01-.55.48 3 3 0 01-.82.22 9 9 0 01-1.06.05h-.38v1.02h.52a7 7 0 001.4-.12 3 3 0 001.08-.42 2 2 0 00.72-.78 3 3 0 00.3-1.24h1.5a6 6 0 001.28-.13 7 7 0 001.2-.36 2 2 0 00.68.4 3 3 0 00.68.1h2.43q.54 0 .92-.04a3 3 0 00.65-.12 1 1 0 00.43-.25 1 1 0 00.28-.4l.18.29a1 1 0 00.3.26 2 2 0 00.47.18 3 3 0 00.71.07 4 4 0 001.1-.15 1.1 1.1 0 00.68-.65l.17.28a1 1 0 00.29.26 2 2 0 00.46.19 3 3 0 00.68.07l.35-.03a2 2 0 00.43-.11 2 2 0 00.42-.24 1 1 0 00.3-.41 1 1 0 00.4.57 1.2 1.2 0 00.77.22h2.92v-8.74h-1Zm-20.67 0h-1.31a1.7 1.7 0 01-1.06-.3 1.1 1.1 0 01-.36-.91 2 2 0 01.09-.56 2 2 0 01.25-.51 1 1 0 01.42-.37 1.3 1.3 0 01.61-.14 1.1 1.1 0 011.05.54 3 3 0 01.31 1.44Zm5.15-.62-1.49-1.58a2 2 0 01.7-.52 2 2 0 01.92-.2 1.5 1.5 0 01.9.23.7.7 0 01.29.5 1.3 1.3 0 01-.36.86 3 3 0 01-.95.7Zm18.24-7.1h1v8.74h-1zm16.5 1.95h-.84a.8.8 0 01-.63-.23.8.8 0 01-.21-.58 1 1 0 01.18-.5.7.7 0 01.57-.22 2 2 0 01.63.1v-.65l-.26-.06a2 2 0 00-.45-.04 1 1 0 00-.49.09 1 1 0 00-.41.25 1 1 0 00-.3.41 2 2 0 00-.1.6 1.3 1.3 0 00.27.83h-.62v.65h2.67Z"/>
</svg>
